<?xml version="1.0" standalone="no"?>
<!DOCTYPE svg PUBLIC "-//W3C//DTD SVG 20010904//EN"
 "http://www.w3.org/TR/2001/REC-SVG-20010904/DTD/svg10.dtd">
<svg version="1.0" xmlns="http://www.w3.org/2000/svg"
 width="500.000000pt" height="500.000000pt" viewBox="0 0 500.000000 500.000000"
 preserveAspectRatio="xMidYMid meet">
<metadata>
Created by potrace 1.14, written by Peter Selinger 2001-2017
</metadata>
<g transform="translate(0.000000,500.000000) scale(0.100000,-0.100000)"
fill="#000000" stroke="none">
<path d="M2823 4620 c-27 -16 -39 -30 -69 -78 -1 -2 -13 0 -26 3 -16 4 -29 18
-37 41 -10 28 -17 34 -40 34 -41 0 -59 -25 -37 -49 18 -20 55 -31 120 -37 21
-2 46 -10 54 -16 12 -10 16 -10 19 0 3 6 18 12 34 12 43 0 107 29 115 52 16
52 -70 77 -133 38z m105 -12 c30 -30 -7 -56 -95 -65 -63 -7 -68 5 -22 48 34
31 94 40 117 17z m-250 -25 c4 -25 -8 -29 -38 -13 -25 13 -15 42 14 38 13 -2
22 -12 24 -25z"/>
<path d="M2692 4500 c0 -14 2 -19 5 -12 2 6 2 18 0 25 -3 6 -5 1 -5 -13z"/>
<path d="M2885 4440 c10 -11 20 -20 23 -20 3 0 -3 9 -13 20 -10 11 -20 20 -23
20 -3 0 3 -9 13 -20z"/>
<path d="M2920 4399 c0 -13 -101 -63 -128 -64 -17 0 -27 -6 -27 -15 0 -8 7
-13 15 -11 70 19 109 6 90 -30 -8 -15 -7 -17 5 -13 22 9 18 39 -7 57 -23 15
-23 15 23 37 l46 23 67 -33 c57 -28 70 -31 91 -22 35 16 32 48 -5 67 -31 16
-170 19 -170 4z m154 -9 c37 -14 36 -50 -2 -50 -31 0 -94 31 -100 48 -5 15 66
16 102 2z"/>
<path d="M2908 4250 c-7 -11 -20 -20 -28 -21 -8 -1 3 -5 25 -10 111 -26 116
-29 105 -49 -6 -12 -22 -21 -38 -21 -23 -2 -24 -2 -4 -6 23 -5 31 -23 10 -23
-6 0 -9 -2 -6 -5 3 -3 17 -1 32 5 21 8 26 15 21 30 -5 14 -2 20 10 20 34 0 7
24 -39 36 -56 15 -64 20 -48 36 18 18 15 28 -8 28 -11 0 -25 -9 -32 -20z"/>
<path d="M2814 4249 c-8 -13 14 -29 36 -28 11 1 10 3 -2 6 -21 5 -23 19 -5 26
7 3 6 6 -5 6 -9 1 -20 -4 -24 -10z"/>
<path d="M2907 4164 c-8 -8 1 -24 12 -24 4 0 8 7 8 15 0 16 -9 20 -20 9z"/>
<path d="M2563 4129 c-12 -6 -24 -20 -27 -32 -6 -22 9 -57 25 -57 6 0 6 6 0
19 -26 48 100 75 219 48 80 -19 91 -14 18 8 -68 20 -206 29 -235 14z"/>
<path d="M2092 4119 c-62 -12 -104 -39 -113 -73 -10 -37 -3 -51 35 -74 91 -54
261 -82 481 -81 l160 2 -100 8 c-255 21 -358 40 -436 79 -65 34 -57 70 26 112
33 17 52 20 115 15 41 -3 84 -9 95 -13 11 -4 17 -4 13 1 -13 14 -122 35 -178
34 -30 -1 -75 -5 -98 -10z"/>
<path d="M3648 4110 c-62 -11 -167 -45 -243 -80 -33 -15 -94 -42 -135 -60 -93
-41 -215 -103 -255 -130 -16 -11 -38 -20 -47 -20 -10 0 -18 -4 -18 -9 0 -13
-106 -50 -128 -44 -13 3 -21 -1 -24 -14 -6 -21 -57 -38 -233 -75 -100 -21
-132 -23 -356 -21 -263 2 -310 8 -504 63 -55 15 -140 47 -190 71 -78 38 -94
50 -118 91 -46 74 -19 107 86 109 43 1 47 2 25 9 -33 10 -106 -5 -130 -27 -11
-10 -18 -31 -18 -55 0 -33 7 -45 53 -89 75 -72 210 -136 327 -155 19 -3 38 -8
41 -10 16 -10 332 -44 408 -44 168 0 408 42 596 105 57 19 113 35 124 35 12 0
30 9 41 20 13 13 33 20 56 20 19 0 33 4 30 9 -14 22 114 94 334 188 135 58
163 67 219 67 78 1 98 -17 65 -60 -46 -62 -347 -190 -484 -207 l-35 -4 37 -1
c80 -4 317 67 448 133 25 13 73 44 108 69 131 97 97 146 -80 116z"/>
<path d="M2927 4093 c-4 -3 -20 -6 -37 -5 -16 0 -30 -4 -30 -9 0 -5 -11 -14
-25 -19 -33 -13 -32 -23 6 -37 17 -7 29 -16 26 -20 -3 -5 7 -9 21 -8 23 0 27
-4 27 -26 -1 -18 4 -25 13 -22 9 4 11 15 7 34 -5 21 -2 31 9 35 21 8 20 21 -4
41 -14 13 -17 20 -8 30 11 13 7 18 -5 6z m4 -42 l24 -19 -28 -11 c-22 -9 -35
-7 -59 5 -30 16 -31 17 -13 30 26 19 48 17 76 -5z"/>
<path d="M2619 4051 c-30 -14 -35 -20 -28 -38 11 -30 29 -38 29 -14 0 18 6 21
46 21 55 0 138 20 127 30 -4 4 -24 11 -43 15 -23 4 -30 3 -21 -3 23 -17 2 -32
-45 -32 -47 0 -58 15 -21 30 12 5 15 9 7 9 -8 -1 -31 -8 -51 -18z"/>
<path d="M1800 4023 c87 -6 107 -38 42 -67 -32 -14 -48 -16 -101 -7 -35 6 -73
16 -85 24 -21 13 -56 12 -56 -2 0 -15 100 -42 177 -48 98 -7 133 8 133 57 0
39 -24 50 -102 48 l-63 -2 55 -3z"/>
<path d="M1563 3979 c9 -6 14 -16 11 -22 -5 -9 -4 -9 6 0 15 14 5 33 -18 33
-15 -1 -15 -2 1 -11z"/>
<path d="M2777 3980 c-27 -5 -52 -11 -55 -14 -7 -8 88 5 113 15 25 10 5 9 -58
-1z"/>
<path d="M2638 3973 c7 -3 16 -2 19 1 4 3 -2 6 -13 5 -11 0 -14 -3 -6 -6z"/>
<path d="M1530 3920 c-8 -16 -6 -22 12 -34 37 -24 167 -56 253 -62 44 -3 112
-9 150 -14 39 -5 127 -12 195 -15 69 -3 140 -8 158 -9 17 -2 32 0 32 4 0 4
-57 10 -127 13 -223 10 -490 47 -616 84 -40 12 -48 18 -44 34 7 25 1 24 -13
-1z"/>
<path d="M889 3917 c-121 -17 -204 -87 -215 -183 -6 -46 -4 -51 34 -94 32 -37
53 -50 110 -69 39 -13 77 -21 84 -18 8 3 5 6 -6 6 -38 2 -106 43 -122 73 -35
67 -17 146 42 184 32 21 126 44 184 44 61 0 209 -47 357 -115 141 -63 250
-102 313 -110 35 -4 28 0 -33 19 -76 23 -174 70 -342 162 -167 91 -280 119
-406 101z"/>
<path d="M2662 3919 c4 -19 77 -29 111 -14 26 11 25 12 -25 11 -29 0 -61 3
-71 8 -13 6 -17 5 -15 -5z"/>
<path d="M3063 3793 c9 -2 23 -2 30 0 6 3 -1 5 -18 5 -16 0 -22 -2 -12 -5z"/>
<path d="M2398 3783 c29 -2 74 -2 100 0 26 2 2 3 -53 3 -55 0 -76 -1 -47 -3z"/>
<path d="M4365 3771 c-45 -11 -85 -35 -137 -80 -25 -23 -54 -41 -65 -41 -10 0
8 -17 46 -41 35 -23 59 -45 55 -49 -5 -5 -25 -12 -44 -15 -19 -3 -55 -11 -80
-16 -177 -40 -395 -48 -577 -20 -71 11 -211 25 -309 31 -98 6 -212 12 -251 14
-40 3 -75 1 -78 -5 -4 -5 14 -9 40 -9 93 0 564 -46 635 -61 25 -6 95 -12 155
-14 94 -4 138 1 300 31 105 19 205 40 223 46 26 10 37 10 53 0 18 -12 19 -11
10 5 -7 15 -6 19 7 19 52 2 210 16 229 20 28 5 91 -20 99 -40 3 -8 -2 -29 -11
-46 -21 -41 -15 -46 19 -15 21 19 27 33 24 57 -7 73 -124 90 -322 47 -98 -21
-98 -21 -125 -2 -14 11 -27 28 -29 37 -3 13 6 16 45 18 l48 1 -44 6 c-42 6
-43 7 -25 23 11 9 49 31 86 48 75 35 150 39 156 9 3 -18 -67 -52 -131 -64 -21
-4 -36 -10 -33 -12 3 -3 39 2 81 12 87 19 131 49 121 82 -10 31 -94 42 -171
24z"/>
<path d="M2728 3763 c6 -2 18 -2 25 0 6 3 1 5 -13 5 -14 0 -19 -2 -12 -5z"/>
<path d="M368 3635 c-63 -23 -85 -43 -98 -91 -25 -89 12 -143 145 -211 53 -28
137 -53 170 -52 11 0 -9 8 -45 17 -109 29 -218 115 -236 188 -9 34 17 76 61
101 69 40 181 19 363 -67 185 -86 513 -162 762 -175 63 -3 130 -8 148 -11 23
-4 32 -2 27 5 -3 6 -23 11 -43 11 -20 0 -77 6 -127 14 -49 8 -117 17 -150 20
-133 13 -229 35 -379 86 -50 16 -91 30 -93 30 -1 0 0 -8 3 -17 2 -10 -1 -8 -7
5 -7 12 -16 22 -20 22 -5 0 -60 24 -122 54 -171 82 -273 103 -359 71z"/>
<path d="M1750 3619 c19 -4 69 -10 110 -13 l75 -5 -90 14 c-101 15 -148 17
-95 4z"/>
<path d="M1258 3593 c17 -2 47 -2 65 0 17 2 3 4 -33 4 -36 0 -50 -2 -32 -4z"/>
<path d="M2008 3593 c7 -3 16 -2 19 1 4 3 -2 6 -13 5 -11 0 -14 -3 -6 -6z"/>
<path d="M2058 3593 c6 -2 18 -2 25 0 6 3 1 5 -13 5 -14 0 -19 -2 -12 -5z"/>
<path d="M1110 3580 c-10 -7 1 -8 35 -4 28 4 52 8 54 10 10 9 -75 3 -89 -6z"/>
<path d="M1423 3572 c45 -15 61 -35 35 -45 -7 -3 -8 -6 -3 -6 19 -1 38 17 30
29 -9 15 -69 40 -92 39 -10 0 3 -8 30 -17z"/>
<path d="M2220 3580 c147 -12 416 -23 410 -18 -6 7 -166 16 -360 22 -121 3
-130 3 -50 -4z"/>
<path d="M1065 3560 c-3 -6 1 -7 9 -4 18 7 21 14 7 14 -6 0 -13 -4 -16 -10z"/>
<path d="M2698 3563 c7 -3 16 -2 19 1 4 3 -2 6 -13 5 -11 0 -14 -3 -6 -6z"/>
<path d="M2808 3553 c17 -2 47 -2 65 0 17 2 3 4 -33 4 -36 0 -50 -2 -32 -4z"/>
<path d="M1039 3533 c-14 -3 -13 -9 10 -32 25 -28 65 -45 126 -55 114 -19 393
-56 419 -55 32 1 -44 15 -249 43 -179 25 -257 46 -271 74 -14 28 -15 29 -35
25z"/>
<path d="M1148 3513 c12 -2 30 -2 40 0 9 3 -1 5 -23 4 -22 0 -30 -2 -17 -4z"/>
<path d="M3125 3459 c-16 -6 -86 -12 -155 -14 -69 -2 -173 -11 -232 -19 -59
-9 -182 -21 -275 -26 -92 -6 -170 -14 -173 -17 -3 -3 33 -3 80 0 89 6 90 2 5
-18 -47 -11 -44 -12 50 -8 82 4 122 0 220 -21 66 -14 138 -25 160 -24 32 1 34
2 10 5 -67 8 -311 57 -318 63 -16 14 492 43 513 30 9 -6 6 -16 -11 -39 -35
-47 -19 -66 57 -66 54 1 240 43 230 52 -2 2 -41 -3 -86 -11 -109 -21 -200 -21
-200 -1 0 8 17 26 38 39 34 23 41 24 94 14 105 -18 179 20 109 56 -33 18 -71
19 -116 5z m123 -26 c6 -19 -47 -35 -90 -28 -39 7 -52 30 -20 38 32 9 105 2
110 -10z m-768 -47 c0 -3 -4 -8 -10 -11 -5 -3 -10 -1 -10 4 0 6 5 11 10 11 6
0 10 -2 10 -4z"/>
<path d="M4600 3466 c0 -2 9 -6 20 -9 11 -3 20 -1 20 4 0 5 -9 9 -20 9 -11 0
-20 -2 -20 -4z"/>
<path d="M3615 3399 c-12 -4 21 -8 85 -8 200 -2 376 -12 480 -28 58 -9 114
-17 125 -18 147 -20 212 -38 345 -98 72 -32 92 -56 97 -114 5 -45 2 -51 -35
-88 -60 -62 -168 -96 -302 -97 -56 0 -99 -2 -96 -5 8 -8 216 -12 216 -5 0 4
34 8 75 9 77 2 185 27 185 43 0 5 -5 12 -10 15 -6 4 -8 11 -5 16 4 5 1 9 -5 9
-6 0 -9 4 -5 9 3 5 -3 12 -12 14 -17 4 -17 5 0 6 9 0 17 6 17 12 0 6 5 9 12 7
6 -2 12 -21 13 -41 0 -20 4 -39 8 -43 12 -13 67 19 96 55 43 55 47 77 16 97
-14 9 -25 22 -25 28 0 7 -11 23 -25 36 -23 22 -25 22 -52 6 l-28 -17 24 20
c24 21 22 25 -14 22 -15 -1 -17 0 -7 7 11 8 11 10 0 15 -7 3 -30 13 -51 22
-22 9 -36 11 -32 6 3 -6 1 -11 -4 -11 -6 0 -11 7 -11 16 0 11 -6 15 -20 11
-13 -3 -20 0 -20 8 0 15 -48 25 -137 30 -32 2 -71 8 -86 14 -39 15 -70 14 -61
-1 6 -10 5 -10 -7 -1 -28 23 -249 44 -488 47 -130 2 -245 0 -256 -5z m968 -76
c-7 -2 -21 -2 -30 0 -10 3 -4 5 12 5 17 0 24 -2 18 -5z m172 -85 c5 4 5 1 1
-6 -6 -10 -11 -10 -22 -1 -8 6 -14 14 -14 16 0 3 6 0 13 -6 8 -6 18 -7 22 -3z
m30 -68 c3 -5 -1 -10 -9 -10 -9 0 -16 5 -16 10 0 6 4 10 9 10 6 0 13 -4 16
-10z m57 -2 c-16 -16 -42 -19 -42 -4 0 6 12 13 27 14 21 2 24 -1 15 -10z m48
-68 c-20 -13 -33 -13 -25 0 3 6 14 10 23 10 15 0 15 -2 2 -10z m-180 -110 c0
-5 -4 -10 -10 -10 -5 0 -10 5 -10 10 0 6 5 10 10 10 6 0 10 -4 10 -10z m-90
-36 c0 -2 -7 -4 -15 -4 -8 0 -15 4 -15 10 0 5 7 7 15 4 8 -4 15 -8 15 -10z"/>
<path d="M1638 3393 c6 -2 18 -2 25 0 6 3 1 5 -13 5 -14 0 -19 -2 -12 -5z"/>
<path d="M1778 3383 c6 -2 18 -2 25 0 6 3 1 5 -13 5 -14 0 -19 -2 -12 -5z"/>
<path d="M1873 3383 c9 -2 23 -2 30 0 6 3 -1 5 -18 5 -16 0 -22 -2 -12 -5z"/>
<path d="M1963 3383 c20 -2 54 -2 75 0 20 2 3 4 -38 4 -41 0 -58 -2 -37 -4z"/>
<path d="M2113 3383 c15 -2 37 -2 50 0 12 2 0 4 -28 4 -27 0 -38 -2 -22 -4z"/>
<path d="M3423 3383 c9 -2 25 -2 35 0 9 3 1 5 -18 5 -19 0 -27 -2 -17 -5z"/>
<path d="M3315 3370 c-14 -7 -8 -8 20 -3 22 3 42 7 44 9 9 8 -45 2 -64 -6z"/>
<path d="M2305 3340 c-3 -5 -25 -10 -48 -11 -42 -1 -42 -1 -13 -11 17 -6 41
-24 54 -40 51 -60 159 -88 209 -53 49 35 -8 77 -123 90 -66 8 -77 12 -69 26 4
5 4 9 1 9 -3 0 -8 -4 -11 -10z m163 -56 c51 -33 2 -53 -85 -35 -54 11 -93 33
-93 54 0 14 151 -2 178 -19z"/>
<path d="M1720 3329 c46 -8 457 -12 449 -5 -2 2 -114 6 -249 9 -136 2 -225 1
-200 -4z"/>
<path d="M2858 3303 c7 -3 16 -2 19 1 4 3 -2 6 -13 5 -11 0 -14 -3 -6 -6z"/>
<path d="M2945 3284 c68 -16 327 -95 426 -130 62 -21 79 -22 79 -3 0 17 -488
149 -545 148 -11 0 7 -7 40 -15z"/>
<path d="M643 3273 c9 -2 23 -2 30 0 6 3 -1 5 -18 5 -16 0 -22 -2 -12 -5z"/>
<path d="M1038 3273 c7 -3 16 -2 19 1 4 3 -2 6 -13 5 -11 0 -14 -3 -6 -6z"/>
<path d="M1143 3273 c9 -2 25 -2 35 0 9 3 1 5 -18 5 -19 0 -27 -2 -17 -5z"/>
<path d="M1192 3264 c-7 -8 -25 -14 -40 -15 -15 -1 -38 -5 -52 -10 -26 -9 56
-3 113 7 36 7 35 -10 -3 -26 -17 -7 -33 -17 -36 -22 -8 -12 56 20 78 40 12 9
50 18 105 22 l88 7 -111 0 c-60 0 -114 2 -120 5 -5 3 -15 0 -22 -8z"/>
<path d="M843 3263 c9 -2 23 -2 30 0 6 3 -1 5 -18 5 -16 0 -22 -2 -12 -5z"/>
<path d="M903 3263 c9 -2 23 -2 30 0 6 3 -1 5 -18 5 -16 0 -22 -2 -12 -5z"/>
<path d="M1463 3263 c9 -2 25 -2 35 0 9 3 1 5 -18 5 -19 0 -27 -2 -17 -5z"/>
<path d="M1705 3245 c141 -19 284 -31 279 -24 -2 4 -39 10 -81 14 -43 4 -89 8
-103 10 -14 2 -63 5 -110 8 l-85 6 100 -14z"/>
<path d="M2878 3233 c7 -3 16 -2 19 1 4 3 -2 6 -13 5 -11 0 -14 -3 -6 -6z"/>
<path d="M2978 3222 c9 -10 19 -14 21 -9 2 5 -3 13 -10 18 -24 15 -30 10 -11
-9z"/>
<path d="M2730 3185 c-40 -22 -58 -24 -170 -25 -108 -1 -130 -5 -165 -23 -47
-26 -55 -61 -15 -64 25 -3 25 -3 3 7 -13 5 -23 13 -23 17 0 27 102 49 171 38
40 -7 42 -8 23 -22 -18 -14 -18 -15 6 -7 14 5 61 9 105 8 77 -1 78 -1 37 10
-44 11 -47 26 -5 26 13 0 23 4 23 10 0 5 17 18 38 29 20 11 33 20 27 20 -5 0
-30 -11 -55 -24z"/>
<path d="M2150 3190 c34 -11 60 -11 35 0 -11 5 -29 8 -40 8 -16 0 -15 -2 5 -8z"/>
<path d="M2758 3153 c7 -3 16 -2 19 1 4 3 -2 6 -13 5 -11 0 -14 -3 -6 -6z"/>
<path d="M2808 3153 c7 -3 16 -2 19 1 4 3 -2 6 -13 5 -11 0 -14 -3 -6 -6z"/>
<path d="M3480 3136 c15 -15 65 -31 260 -80 161 -41 171 -38 30 8 -139 46
-223 70 -275 81 -27 6 -28 5 -15 -9z"/>
<path d="M1208 3103 c23 -2 59 -2 80 0 20 2 1 4 -43 4 -44 0 -61 -2 -37 -4z"/>
<path d="M1338 3103 c7 -3 16 -2 19 1 4 3 -2 6 -13 5 -11 0 -14 -3 -6 -6z"/>
<path d="M1438 3099 c13 -5 28 -7 32 -4 5 3 11 1 14 -4 3 -5 -8 -11 -26 -15
-17 -3 -29 -9 -26 -12 3 -3 35 0 69 6 77 14 307 6 417 -15 49 -10 79 -11 87
-5 17 14 224 -1 360 -26 112 -20 291 -63 490 -118 28 -7 68 -16 90 -19 55 -8
246 -52 330 -77 80 -23 85 -24 85 -10 0 11 -91 39 -265 80 -383 91 -471 111
-590 134 -196 38 -272 47 -475 57 -102 4 -212 13 -245 18 -84 13 -376 22 -347
10z"/>
<path d="M2758 3103 c7 -3 16 -2 19 1 4 3 -2 6 -13 5 -11 0 -14 -3 -6 -6z"/>
<path d="M1048 3093 c12 -2 32 -2 45 0 12 2 2 4 -23 4 -25 0 -35 -2 -22 -4z"/>
<path d="M2808 3093 c6 -2 18 -2 25 0 6 3 1 5 -13 5 -14 0 -19 -2 -12 -5z"/>
<path d="M905 3080 l-20 -9 20 1 c11 0 34 4 50 8 l30 8 -30 0 c-16 0 -39 -3
-50 -8z"/>
<path d="M2858 3083 c6 -2 18 -2 25 0 6 3 1 5 -13 5 -14 0 -19 -2 -12 -5z"/>
<path d="M2918 3073 c7 -3 16 -2 19 1 4 3 -2 6 -13 5 -11 0 -14 -3 -6 -6z"/>
<path d="M2956 3070 c5 -4 31 -12 58 -18 26 -5 44 -6 40 -2 -5 4 -31 12 -58
18 -26 5 -44 6 -40 2z"/>
<path d="M820 3059 c-62 -25 -75 -61 -35 -99 31 -29 113 -38 182 -20 27 6 55
13 63 15 62 13 298 79 310 87 20 12 -32 4 -175 -26 -200 -44 -229 -49 -284
-47 -56 1 -105 23 -98 44 2 7 21 22 43 34 40 23 38 29 -6 12z"/>
<path d="M3078 3043 c7 -3 16 -2 19 1 4 3 -2 6 -13 5 -11 0 -14 -3 -6 -6z"/>
<path d="M2038 3033 c7 -3 16 -2 19 1 4 3 -2 6 -13 5 -11 0 -14 -3 -6 -6z"/>
<path d="M2115 3015 c45 -15 106 -20 70 -6 -11 5 -40 11 -65 14 l-45 5 40 -13z"/>
<path d="M3225 3020 c3 -5 11 -10 16 -10 6 0 7 5 4 10 -3 6 -11 10 -16 10 -6
0 -7 -4 -4 -10z"/>
<path d="M3278 3013 c7 -3 16 -2 19 1 4 3 -2 6 -13 5 -11 0 -14 -3 -6 -6z"/>
<path d="M3955 3007 c22 -8 42 -12 44 -10 9 7 -8 14 -45 19 l-39 4 40 -13z"/>
<path d="M2214 3002 c3 -5 27 -13 53 -16 70 -10 163 -37 163 -48 0 -18 -57
-29 -120 -24 -43 3 -55 2 -35 -3 72 -20 181 -6 173 22 -7 20 -72 47 -140 58
-34 5 -71 12 -82 15 -11 4 -16 2 -12 -4z"/>
<path d="M3338 3003 c7 -3 16 -2 19 1 4 3 -2 6 -13 5 -11 0 -14 -3 -6 -6z"/>
<path d="M4010 2996 c0 -2 11 -6 25 -8 14 -3 25 -1 25 3 0 5 -11 9 -25 9 -14
0 -25 -2 -25 -4z"/>
<path d="M1908 2983 c7 -3 16 -2 19 1 4 3 -2 6 -13 5 -11 0 -14 -3 -6 -6z"/>
<path d="M3478 2983 c7 -3 16 -2 19 1 4 3 -2 6 -13 5 -11 0 -14 -3 -6 -6z"/>
<path d="M1702 2964 c-41 -29 -17 -66 36 -56 l27 6 -24 6 c-31 7 -36 23 -16
44 21 20 6 21 -23 0z"/>
<path d="M1837 2969 c-9 -5 -21 -8 -25 -5 -4 3 -14 -4 -20 -15 -12 -19 -11
-19 8 -9 33 18 43 2 18 -32 -67 -88 -67 -107 -1 -129 36 -11 203 -9 403 7 125
10 159 24 45 19 -292 -13 -375 -15 -420 -8 -44 7 -50 11 -53 34 -2 17 6 37 24
58 22 27 33 32 63 29 27 -2 36 1 36 12 0 10 -12 16 -32 18 -33 3 -43 16 -20
25 6 3 8 6 2 6 -5 0 -18 -4 -28 -10z"/>
<path d="M4253 2953 c9 -2 25 -2 35 0 9 3 1 5 -18 5 -19 0 -27 -2 -17 -5z"/>
<path d="M3868 2933 c7 -3 16 -2 19 1 4 3 -2 6 -13 5 -11 0 -14 -3 -6 -6z"/>
<path d="M2218 2923 c7 -3 16 -2 19 1 4 3 -2 6 -13 5 -11 0 -14 -3 -6 -6z"/>
<path d="M4028 2918 c-10 -7 -10 -8 2 -7 14 3 58 -5 105 -18 11 -3 17 -3 14 1
-13 14 -108 33 -121 24z"/>
<path d="M4273 2874 c13 -14 167 -62 156 -48 -12 14 -56 30 -108 39 -19 3 -39
9 -45 12 -6 4 -7 2 -3 -3z"/>
<path d="M2533 2846 c-144 -38 -105 -40 50 -3 48 12 57 12 57 1 0 -8 5 -14 11
-14 6 0 8 -7 5 -15 -3 -9 1 -18 9 -21 8 -4 15 -12 15 -20 0 -8 10 -14 24 -14
25 0 48 -21 29 -27 -17 -6 -49 -32 -38 -32 6 -1 21 8 35 19 23 17 24 21 11 42
-13 21 -11 25 24 55 41 35 38 39 -32 34 -18 -2 -33 2 -33 8 0 17 -76 11 -167
-13z m193 -31 c-27 -21 -53 -20 -36 0 7 8 22 15 34 15 21 -1 21 -1 2 -15z"/>
<path d="M2383 2813 c9 -2 25 -2 35 0 9 3 1 5 -18 5 -19 0 -27 -2 -17 -5z"/>
<path d="M4158 2799 c-10 -5 -18 -17 -18 -26 0 -9 3 -13 8 -9 4 4 6 11 5 14
-1 4 8 12 20 19 12 7 18 12 12 12 -5 0 -18 -4 -27 -10z"/>
<path d="M4480 2801 c0 -6 5 -13 10 -16 6 -3 10 1 10 9 0 9 -4 16 -10 16 -5 0
-10 -4 -10 -9z"/>
<path d="M3375 2790 c-3 -5 1 -10 9 -10 9 0 16 5 16 10 0 6 -4 10 -9 10 -6 0
-13 -4 -16 -10z"/>
<path d="M3410 2780 c0 -9 17 -14 48 -13 6 1 12 -3 12 -8 0 -4 17 -11 38 -14
20 -3 44 -10 52 -14 9 -5 36 -11 60 -15 32 -5 15 4 -55 28 -125 42 -155 49
-155 36z"/>
<path d="M4520 2775 c7 -8 19 -15 27 -15 13 0 13 3 3 15 -7 8 -19 15 -27 15
-13 0 -13 -3 -3 -15z"/>
<path d="M4277 2761 c5 -20 -20 -51 -42 -51 -7 0 -27 12 -44 26 -41 34 -40 22
2 -16 27 -24 29 -29 13 -30 -42 0 -3 -14 43 -14 40 -1 45 1 32 11 -11 9 -12
15 -5 20 15 11 24 41 18 58 -9 22 -23 19 -17 -4z"/>
<path d="M4565 2750 c-8 -13 -1 -24 14 -19 6 3 7 10 2 18 -6 10 -10 10 -16 1z"/>
<path d="M3685 2700 c27 -12 43 -12 25 0 -8 5 -22 9 -30 9 -10 0 -8 -3 5 -9z"/>
<path d="M4536 2686 c7 -18 46 -15 51 4 3 11 2 11 -4 3 -6 -8 -14 -9 -23 -3
-21 14 -30 12 -24 -4z"/>
<path d="M2700 2672 c0 -12 19 -26 26 -19 2 2 -2 10 -11 17 -9 8 -15 8 -15 2z"/>
<path d="M4130 2670 c-14 -4 -43 -9 -65 -9 -28 -1 -36 -4 -25 -10 17 -10 119
5 135 20 11 11 -9 10 -45 -1z"/>
<path d="M4505 2670 c-3 -5 -1 -10 4 -10 6 0 11 5 11 10 0 6 -2 10 -4 10 -3 0
-8 -4 -11 -10z"/>
<path d="M2750 2660 c-13 -9 -13 -11 0 -20 18 -11 39 5 24 20 -6 6 -15 6 -24
0z"/>
<path d="M3918 2653 c6 -2 18 -2 25 0 6 3 1 5 -13 5 -14 0 -19 -2 -12 -5z"/>
<path d="M2685 2630 c-4 -6 10 -17 31 -26 20 -8 43 -22 51 -30 8 -8 21 -14 30
-14 8 0 13 -6 11 -12 -3 -8 -28 -15 -59 -18 -30 -3 -60 -9 -66 -13 -20 -12
-15 -34 8 -40 16 -4 18 -3 9 8 -20 24 -1 35 60 35 32 0 61 4 64 9 8 13 -4 41
-18 41 -6 0 -19 9 -29 20 -9 11 -26 20 -37 20 -11 0 -23 7 -26 15 -7 17 -20
20 -29 5z"/>
<path d="M2775 2446 l30 -13 -42 -6 c-78 -13 -46 -39 62 -51 37 -4 66 -2 75 4
12 9 9 11 -15 9 -44 -2 -58 0 -75 11 -13 9 -13 11 0 20 8 5 31 10 50 10 53 1
17 16 -55 23 -55 6 -58 5 -30 -7z"/>
<path d="M3050 2340 c-40 -22 -37 -25 9 -9 17 6 31 15 31 20 0 11 2 12 -40
-11z"/>
<path d="M2770 2338 c0 -4 15 -5 33 -1 46 8 48 14 4 11 -20 -1 -37 -6 -37 -10z"/>
<path d="M2851 2346 c2 -2 18 -6 34 -10 22 -5 26 -4 15 4 -14 9 -59 15 -49 6z"/>
<path d="M2730 2315 c-19 -22 -8 -25 13 -3 9 10 13 18 8 18 -5 0 -14 -7 -21
-15z"/>
<path d="M2930 2315 c14 -17 46 -20 54 -6 4 5 -2 7 -13 4 -10 -3 -22 0 -25 6
-4 6 -12 11 -18 11 -7 0 -6 -6 2 -15z"/>
<path d="M2808 2273 c7 -3 16 -2 19 1 4 3 -2 6 -13 5 -11 0 -14 -3 -6 -6z"/>
<path d="M3023 2247 c-2 -14 1 -16 11 -8 8 6 22 9 32 5 14 -4 16 -3 5 4 -11 8
-11 10 0 15 8 3 0 4 -17 4 -21 -2 -31 -7 -31 -20z"/>
<path d="M3093 2255 c0 -8 4 -15 9 -15 4 0 8 7 8 15 0 8 -4 15 -8 15 -5 0 -9
-7 -9 -15z"/>
<path d="M2941 2185 c-70 -48 -95 -54 -142 -29 -40 20 -61 12 -57 -23 3 -27 1
-28 -60 -36 -68 -8 -164 -40 -181 -60 -24 -29 5 -41 106 -45 54 -1 105 -6 113
-9 8 -4 22 -7 30 -8 8 -1 30 -5 48 -9 25 -6 32 -4 30 6 -4 17 93 24 122 8 16
-9 20 -8 20 5 0 15 -34 21 -85 17 -82 -8 -151 -8 -155 -2 -7 11 -100 20 -100
10 0 -5 -14 -4 -31 2 -22 7 -27 14 -20 21 8 8 14 8 23 -1 16 -16 28 -15 28 2
0 20 73 53 160 71 93 19 146 45 190 90 19 19 32 35 29 35 -2 0 -33 -20 -68
-45z m-151 -35 c8 -5 11 -12 8 -16 -10 -9 -38 3 -38 16 0 12 10 13 30 0z"/>
<path d="M2980 1985 c0 -4 7 -19 15 -35 l15 -29 -38 4 -37 5 40 -10 c67 -18
83 1 40 45 -26 25 -35 30 -35 20z"/>
<path d="M2855 1951 c6 -5 24 -13 40 -17 39 -9 30 0 -15 15 -19 6 -30 7 -25 2z"/>
<path d="M2665 1910 c-14 -16 -31 -20 -75 -20 -44 0 -61 -5 -74 -19 -18 -20
-15 -41 6 -41 7 0 6 5 -2 15 -13 16 -7 21 34 27 28 4 31 -20 4 -32 -23 -10
-23 -11 2 -4 63 15 77 15 89 0 18 -21 10 -134 -10 -147 -12 -7 -12 -9 1 -10 8
-1 19 -1 23 0 5 1 6 -3 2 -9 -4 -6 -14 -10 -23 -9 -10 1 -25 -1 -35 -6 -9 -4
-30 -3 -45 3 -49 18 -57 19 -80 11 -19 -7 -21 -12 -12 -29 6 -11 18 -20 27
-20 14 0 14 2 -3 14 -16 12 -16 15 -4 20 32 11 85 -8 73 -26 -2 -4 9 -5 26 -2
21 5 40 0 66 -16 20 -12 39 -20 41 -17 3 3 -12 15 -35 27 -39 19 -58 39 -27
27 18 -7 73 53 82 88 8 34 -3 74 -32 112 -30 39 -30 46 -1 66 12 9 17 16 11
16 -6 1 -19 -8 -29 -19z"/>
<path d="M2671 1564 c-11 -8 -21 -13 -21 -10 0 3 -26 -6 -57 -20 -32 -14 -65
-23 -75 -21 -10 3 -15 0 -12 -8 3 -7 -4 -16 -16 -20 -12 -4 -19 -9 -17 -12 3
-2 19 3 37 12 17 9 39 14 47 11 9 -4 21 1 28 10 11 16 98 54 122 54 7 0 35
-16 62 -35 26 -19 64 -37 82 -40 l34 -6 -38 14 c-45 18 -109 65 -103 76 9 14
-51 10 -73 -5z"/>
<path d="M2845 1570 c3 -5 11 -10 16 -10 6 0 7 5 4 10 -3 6 -11 10 -16 10 -6
0 -7 -4 -4 -10z"/>
<path d="M2234 1558 c-8 -12 23 -21 38 -12 22 14 37 13 31 -2 -7 -18 21 -18
36 0 8 10 9 16 2 21 -15 8 -101 3 -107 -7z"/>
<path d="M2370 1551 c0 -6 6 -11 13 -11 6 0 23 -3 37 -6 18 -4 21 -3 10 4 -27
17 -60 24 -60 13z"/>
<path d="M2210 1510 c0 -44 40 -68 120 -69 63 -1 130 15 130 31 0 4 -12 3 -26
-2 -14 -6 -37 -10 -52 -10 -36 0 -97 31 -97 49 0 8 -5 16 -11 18 -6 2 -10 -9
-9 -27 2 -28 1 -29 -16 -14 -10 9 -15 22 -13 29 3 7 -2 15 -10 18 -12 5 -16 0
-16 -23z"/>
<path d="M2906 1527 c3 -9 0 -25 -7 -34 -12 -14 -12 -16 1 -11 19 6 25 37 10
52 -8 8 -10 7 -4 -7z"/>
<path d="M2631 1467 c2 -2 18 -11 34 -21 l30 -17 -24 20 c-13 12 -28 21 -34
21 -6 0 -8 -1 -6 -3z"/>
<path d="M2704 1414 c7 -25 -16 -49 -39 -41 -8 4 -17 2 -20 -3 -8 -13 -45 -13
-45 -1 0 5 8 12 18 15 10 3 6 4 -8 3 -15 -1 -25 -8 -25 -17 0 -11 12 -15 50
-15 28 -1 61 -7 73 -14 13 -7 26 -10 29 -8 2 3 -5 8 -16 12 -24 7 -26 17 -9
45 10 16 10 22 -1 32 -11 11 -12 9 -7 -8z"/>
<path d="M2828 1423 c-10 -2 -18 -9 -18 -14 0 -6 -5 -7 -11 -4 -18 12 -50 -27
-47 -56 1 -14 -4 -34 -11 -43 -11 -14 -11 -16 2 -16 21 0 41 26 27 35 -25 15
41 53 99 58 12 1 21 7 21 15 0 7 5 10 10 7 6 -4 8 -10 5 -15 -3 -5 3 -11 12
-15 10 -3 38 -24 63 -47 25 -23 37 -35 28 -28 -15 10 -18 10 -18 -3 0 -11 -12
-17 -42 -20 l-43 -4 50 -1 c66 -2 82 8 69 45 -6 15 -16 27 -23 25 -7 -1 -10 2
-7 6 8 13 -22 38 -74 61 -45 21 -60 23 -92 14z"/>
<path d="M2590 1275 c-7 -8 -10 -22 -6 -30 5 -14 103 -65 125 -65 6 0 11 -6
11 -14 0 -14 -28 -25 -70 -26 l-25 -1 24 -10 c34 -13 123 16 119 39 -2 10 -18
19 -41 24 -50 10 -117 45 -117 61 0 7 5 18 12 25 9 9 8 12 -4 12 -8 0 -21 -7
-28 -15z"/>
<path d="M2868 1283 c7 -3 16 -2 19 1 4 3 -2 6 -13 5 -11 0 -14 -3 -6 -6z"/>
<path d="M2328 1194 c-18 -17 -5 -35 40 -57 49 -25 102 -41 102 -32 0 3 -16
13 -35 21 -88 36 1 50 125 19 85 -22 71 -9 -22 19 -89 28 -198 43 -210 30z"/>
<path d="M2470 1095 c-7 -9 -6 -16 4 -24 8 -7 13 -18 10 -25 -3 -8 12 -16 43
-23 26 -6 50 -10 52 -8 2 2 -10 7 -25 11 -32 7 -76 43 -68 55 2 4 19 2 37 -5
17 -7 45 -16 60 -20 25 -6 28 -4 25 15 -2 13 -14 26 -28 31 l-25 8 25 -20 25
-21 -30 3 c-19 2 -30 9 -30 18 0 19 -60 23 -75 5z"/>
<path d="M2153 1085 c-51 -22 -39 -57 30 -91 l32 -15 -35 30 -35 30 20 20 c24
24 87 29 160 12 97 -22 109 -21 35 2 -86 28 -161 32 -207 12z"/>
<path d="M2590 1008 c0 -7 7 -9 58 -11 9 -1 20 -5 23 -10 4 -6 14 -5 25 1 16
9 16 12 4 16 -26 9 -110 11 -110 4z"/>
<path d="M2225 980 c3 -5 14 -10 23 -10 15 0 15 2 2 10 -20 13 -33 13 -25 0z"/>
<path d="M2575 976 c-5 -2 -45 -14 -87 -26 -64 -18 -84 -20 -111 -11 -19 7
-43 13 -53 15 -10 3 -28 8 -38 12 -12 5 -17 4 -13 -3 4 -6 28 -16 53 -23 46
-13 46 -14 27 -30 -22 -18 -149 -21 -248 -7 -40 6 -44 5 -20 -3 87 -29 156
-39 210 -29 27 5 62 11 78 14 15 2 34 8 43 13 11 6 42 1 93 -15 42 -13 90 -28
107 -33 49 -16 130 -12 148 6 33 32 17 69 -43 96 -42 19 -122 33 -146 24z
m104 -21 c8 3 12 3 8 -1 -4 -4 7 -15 23 -26 29 -17 35 -36 15 -50 -26 -19
-222 5 -248 31 -6 6 -9 11 -6 11 2 0 36 11 74 24 52 17 76 21 94 14 14 -5 31
-6 40 -3z"/>
<path d="M1829 916 c-70 -18 -113 -48 -117 -79 -4 -32 3 -34 138 -41 l95 -4
-60 13 c-131 29 -141 47 -47 87 65 27 60 41 -9 24z"/>
<path d="M1913 923 c9 -2 25 -2 35 0 9 3 1 5 -18 5 -19 0 -27 -2 -17 -5z"/>
<path d="M1971 926 c2 -2 22 -6 44 -10 29 -5 36 -4 25 3 -13 10 -79 16 -69 7z"/>
<path d="M2185 819 c-27 -4 -69 -14 -92 -23 -28 -9 -62 -13 -95 -10 -38 3 -47
2 -33 -5 11 -5 30 -10 43 -10 12 -1 22 -4 22 -8 -1 -14 -27 -43 -39 -43 -6 0
-11 -7 -11 -15 0 -20 -52 -45 -92 -44 -41 0 -108 27 -142 56 -33 29 -34 15 -2
-20 57 -61 158 -74 236 -31 18 11 41 23 51 29 10 5 20 16 22 25 2 8 17 22 33
30 16 8 32 19 35 23 13 17 118 37 198 37 46 0 82 3 79 6 -9 9 -157 11 -213 3z"/>
<path d="M2455 787 c28 -12 56 -26 63 -30 20 -13 14 -35 -10 -40 -17 -3 -14
-5 10 -6 26 -1 32 3 32 19 0 22 -91 80 -125 80 -11 -1 2 -10 30 -23z"/>
<path d="M2666 786 c15 -11 16 -17 7 -27 -17 -17 -44 -4 -36 17 4 11 2 15 -4
11 -6 -4 -9 -21 -8 -39 4 -45 4 -45 16 -25 8 14 18 17 42 13 18 -3 26 -3 20 0
-7 3 -13 16 -13 29 0 12 -7 26 -16 29 -26 10 -29 7 -8 -8z"/>
<path d="M1727 773 c-14 -13 -6 -25 8 -13 10 8 30 10 58 6 29 -4 38 -3 27 4
-17 11 -83 14 -93 3z"/>
<path d="M2910 714 c-23 -20 -28 -29 -19 -35 16 -9 69 20 69 38 0 24 -19 23
-50 -3z m28 -6 c-2 -6 -12 -12 -22 -14 -14 -2 -15 0 -5 12 14 17 32 19 27 2z"/>
<path d="M3048 718 c-7 -13 -11 -26 -10 -30 1 -3 -18 -13 -41 -21 -29 -11 -35
-16 -19 -16 30 -1 28 -25 -5 -52 -20 -16 -22 -20 -8 -15 11 4 42 12 68 17 55
10 63 14 95 42 27 25 28 51 2 77 -27 27 -66 26 -82 -2z m52 -23 c16 -20 -12
-65 -40 -65 -23 0 -24 5 -9 49 12 34 29 40 49 16z m-70 -55 c0 -5 -2 -10 -4
-10 -3 0 -8 5 -11 10 -3 6 -1 10 4 10 6 0 11 -4 11 -10z"/>
<path d="M2765 695 c-25 -12 -27 -19 -4 -17 3 1 3 -17 -1 -39 -5 -28 -4 -39 4
-36 6 2 10 16 8 31 -2 19 2 26 15 26 16 0 53 32 53 45 0 10 -45 3 -75 -10z
m45 -4 c0 -6 -4 -13 -10 -16 -5 -3 -10 1 -10 9 0 9 5 16 10 16 6 0 10 -4 10
-9z"/>
<path d="M2708 693 c7 -3 16 -2 19 1 4 3 -2 6 -13 5 -11 0 -14 -3 -6 -6z"/>
<path d="M2105 680 c11 -5 27 -9 35 -9 9 0 8 4 -5 9 -11 5 -27 9 -35 9 -9 0
-8 -4 5 -9z"/>
<path d="M2534 671 c-18 -11 -36 -25 -40 -33 -5 -7 4 -5 21 6 19 13 30 15 33
8 2 -8 11 -6 28 4 51 34 12 48 -42 15z"/>
<path d="M2160 671 c0 -10 37 -18 120 -26 l55 -5 -55 14 c-87 21 -120 26 -120
17z"/>
<path d="M2667 673 c-10 -10 -8 -35 2 -29 5 3 16 -5 25 -19 9 -14 22 -25 28
-25 6 0 8 3 5 7 -4 3 -2 12 4 19 14 17 3 34 -22 34 -10 0 -19 5 -19 10 0 11
-13 13 -23 3z"/>
<path d="M2911 646 c-10 -12 -8 -13 9 -9 25 7 37 23 17 23 -8 0 -20 -6 -26
-14z"/>
<path d="M2845 633 l-40 -13 40 6 c39 6 52 11 44 17 -2 2 -22 -2 -44 -10z"/>
<path d="M2900 606 c0 -2 8 -10 18 -17 15 -13 16 -12 3 4 -13 16 -21 21 -21
13z"/>
</g>
</svg>
